<?xml version="1.0" encoding="utf-8"?>
<!-- Generator: Adobe Illustrator 20.1.0, SVG Export Plug-In . SVG Version: 6.00 Build 0)  -->
<svg version="1.1" id="Layer_1" xmlns="http://www.w3.org/2000/svg" xmlns:xlink="http://www.w3.org/1999/xlink" x="0px" y="0px"
	 width="212px" height="116.9px" viewBox="0 0 212 116.9" style="enable-background:new 0 0 212 116.9;" xml:space="preserve">
<style type="text/css">
	.st0{fill:#FFFFFF;}
	.st1{fill:#0EADAF;}
</style>
<circle class="st0" cx="109.6" cy="26.9" r="26.9"/>
<g>
	<path class="st1" d="M104.4,30.3h-3.3l-0.7,1.6h-2.1l3.5-8.7h1.8l3.4,8.7H105L104.4,30.3z M103.8,28.8l-1.1-2.9l-1.1,2.9H103.8z"/>
	<path class="st1" d="M110,32v-8.7h1.7l4.7,5.6v-5.6h2V32h-1.7l-4.7-5.6V32H110z"/>
</g>
<g>
	<path d="M53.7,51.6c-0.8-1.3-2.2-2.7-3.6-3.5c3.9-9.5,9.7-23.1,11.2-25.8c0.4-0.6,0.6-1.5,0.6-2c0-0.7-0.7-1.1-1.8-0.5
		c-7.7,4-14.3,14.6-22.1,24.7c-2.5-0.4-5.1-0.6-7.4-0.6c-18.5,0-30.6,10.9-30.6,17.6c0,3.8,3.3,5.1,7.5,5.1
		c12.3,0,21.4-8.5,29.9-18.8c3,0.5,6,1.3,8.6,2c-1.5,3.4-4.6,10.3-6.3,15.1c-0.4,0.9-0.8,2-0.8,3.2c0,1,0.8,2.5,1.6,3.7
		c0.2,0.4,0.8,0.6,1.1-0.4c1.2-5,4-12.5,7.3-20.7c1.4,0.5,2.7,1.1,3.9,1.5C53.7,52.6,53.9,52.1,53.7,51.6z M6.9,65.2
		c-2.9,0-5.6-0.9-5.6-2.7C1.3,56.1,14.5,47,29,47c2.2,0,4.5,0.1,6.7,0.4C27.7,57,17.1,65.2,6.9,65.2z M47.4,46.9
		c-2.2-0.8-4.8-1.5-7.4-2.1c5.3-7,11.7-17.3,16.9-21.1c0.4-0.4,0.6-0.2,0.4,0.2C54.6,30.2,50.9,38.9,47.4,46.9z M114.3,52
		c0.8,0.2,1.2-0.1,1.5-0.8c2.4-4.6,2.7-4.9,2.7-5.6c0-0.5-0.4-0.8-0.8-0.8c-1.1,0-2.5,1.5-5.8,5.5l-4.9,6.3c1.3-3.3,3.7-7.9,3.7-9.4
		c0-0.6-0.2-1-1-1c-1.5,0-4.6,4.6-10.4,10.1c-3.4,3.2-8.7,7.9-11.3,7.9c-0.5,0-0.6-0.4-0.6-0.6c0-1.3,1.6-3.5,4.4-6.2
		c0.8-0.4,1.7-0.8,2.5-1.3c0.6-0.4,0.8-0.7,0.8-1.2c0-0.9-0.7-0.8-2,0c-1.1,0.6-2.3,1.6-3.5,2.7c-1.1,0.4-1.9,0.5-2.5,0.5
		c-0.9,0-1.2-0.2-1.2-0.6c0-3.2,10.1-11.2,12.1-11.2c0.4,0,0.4,0.3,0.1,0.8c-0.6,0.8-1.9,2-3.2,2.3c-0.7,0.1-0.1,1,0.6,1
		c1.4,0,5.1-2.5,5.1-4.8c0-0.7-0.7-1.6-1.9-1.6c-5.5,0-14.9,7.7-15,13.2c-4.8,6.2-8.7,8.9-9.6,8.7c-1.2-0.3,2.1-6.4,4.9-12.1
		c2-4,3-5.9,3-7.2c0-0.7-0.5-1.5-1.3-1.5C77.9,45,70,54.5,66,59.2l2.7-5.5c2-4,3.7-7.5,3.7-8.8c0-0.7-0.4-1.3-1.3-1.3
		c-2.6,0-11,9.9-14.6,14c1.5-3.1,5.2-10.3,6.5-13.8c0.3-0.8,0.4-1.3,0.4-1.7c0-0.8-1-1.7-1.7-1.7c-0.7,0-0.6,0.8-2.7,3.7
		c-0.5,0.8-0.5,1.1,0.3,1.4c-1.8,4.3-5.5,11.5-8.1,17.1c-0.4,0.8-0.3,1.1,0.4,1.5c0.9,0.5,2-0.4,2.7-1.3c5.4-7.2,12.6-15,13.8-15
		c0.6,0-1.1,3-3,7.1c-2.1,4.6-2.4,5.2-3.8,8.4c-0.4,0.8-0.4,1.5,0.3,1.8c1,0.5,2.2-0.6,2.8-1.5c5.5-7.6,12.6-15,13.7-15
		c0.8,0-0.7,2.3-2.7,6.4c-2.2,4.6-4.4,8.6-4.4,11.1c0,1.3,0.7,2,1.9,2c2.5,0,6.9-3.9,11.3-9.9c0.4,0.6,1.1,1,2.3,1
		c0.5,0,1.1-0.1,1.8-0.3c-2.1,2-3.7,4.4-3.7,6.4c0,1,0.6,1.5,1.9,1.5c6.1,0,18.6-14.8,19.8-16.3c0.6-0.7,1-0.8,0.7-0.1
		c-2.5,6.8-5.3,11.7-7,15.1c-0.4,0.6-0.2,1.3,1.3,0.8c1.1-0.4,1.6-0.5,2.1-1.3c3.9-6.9,7.7-11.9,10.8-14.8
		C113.8,50.9,113.6,51.8,114.3,52z M130,35.5c1.3,0,2.9-1.9,2.9-3.1c0-0.6-0.8-1.2-1.7-1.2c-1.1,0-2.5,1.8-2.5,3
		C128.7,34.8,129.2,35.5,130,35.5z M186.9,49.8c-6.7,11.3-12.3,15.3-13.5,15c-0.8-0.2,1.8-5.3,5.1-11.4c2.1-3.9,2.8-5.1,2.8-6.2
		c0-0.7-0.6-1.5-1.4-1.5c-2.3,0-10,8.4-13.2,12c1.9-4.3,5-10.6,5-12.9c0-1.1-0.6-1.5-1.3-1.5c-1.1,0-2.5,1.5-3.4,3.1
		c-0.6,1.1-0.4,1.9,0.1,1.3c0.7-1.1,1.1-1.3,1.4-1.3c0.2,0,0.3,0.4-0.1,1.4c-0.4,1-0.8,1.9-1.1,2.7c-6.4,10.6-10.2,14-11.7,14
		c-0.2,0-0.4-0.1-0.4-0.4c0-0.9,1.2-5.1,5.5-12.4c0.6-1-0.6-2.2-1.2-2.2c-0.3,0-0.5,0.1-0.8,0.5c-2.7,4-8.2,11.2-11.9,13.5
		c-1.3,0.7-1.3,0.2-1.1-1.1c1.4-7.4,7.9-15.9,12-15.9c1.1,0,1.8,0.5,2.1,1.1c0.4,0.7,0.8,0,0.7-1c-0.2-1.3-1.2-2.2-3.1-2.2
		c-4.9,0-10,5.5-12.9,11.1c-5.6,7-11.1,9.2-13.4,8.9c-1.3-0.1-2.1-0.9-2.1-3.1c0-6.5,7.4-16.6,11.7-16.6c0.6,0,1.2,0.2,1.5,0.8
		c-1.5,1.4-3.1,3.4-3.5,4.4c-0.4,0.9,0.1,1.3,0.6,1.3c1.8,0,4.1-2.9,4.1-5.5v-0.1c0.6-0.6,1.1-1.2,1.8-1.7c0.3-0.2,0.3-0.8-0.2-0.5
		c-0.6,0.4-1.2,0.7-1.8,1.2c-0.4-0.8-1.3-1.3-2.5-1.3c-4.1,0-9.8,5-12.7,10.9c-4.7,6.7-9.2,10.4-10.9,10.4c-0.4,0-0.6-0.3-0.1-1.8
		c0.8-2.4,5-10.8,8.1-15.9c0.4-0.6,0.1-0.6-0.6-0.4c-1.5,0.6-3.1,1.9-3.9,3.2c-2.4,3.9-5.1,9.2-6.2,12.1c-0.6,1.6-0.9,2.6-0.9,3.4
		c0,1.3,0.7,1.8,1.5,1.8c2.7,0,7.1-3.5,11.5-9.7c-0.4,1.4-0.7,2.8-0.7,4.1c0,3.5,1.8,5.1,4.6,5.1c3.5,0,8.3-3,12.6-8
		c-0.7,1.8-1,3.6-1,5c0,2,1.1,2.9,2.5,2.9c2.5,0,8.5-6.8,10.7-10c-2.1,4.1-3.2,7.3-3.2,8.6c0,1.3,0.8,2,1.8,2
		c2.9,0,6.7-4.3,11.2-11.6c-1.6,3.4-2.9,5.8-4.4,8.9c-0.3,0.5-0.1,0.9,0.6,0.9c0.7,0,1.8-0.2,2.1-0.7c5.1-7.1,12.4-14.5,13.3-14.5
		c0.1,0,0.2,0.1,0.2,0.3c0,1.6-6.5,11-6.5,14.9c0,1.2,0.9,2,1.9,2c3.4,0,9.1-6.1,14.7-15.9c0.3-0.5,0.4-0.9,0.4-1.2
		C187.3,49.5,187.1,49.5,186.9,49.8z"/>
</g>
<g>
	<path d="M57.5,65.2c-5.6,0-20.3,14.5-20.3,25.2c0,1.1,0.8,2.3,1.5,3c0.2,0.2,0.3,0.3,0.4-0.2c0.6-7.1,3.5-13.6,7.9-18.9
		c2.1-2.6,5-5.6,7.5-7c1.1-0.7,1.5-0.3,1.3,0.4c-2.8,8.2-13.6,33.9-21.4,46.3c-0.5,0.8-0.4,1.2,0.5,0.8c3.4-1.5,5.9-5.6,7.9-9.4
		c6.9-13.6,12.9-28.6,15.5-37.6C58.6,66.3,58.5,65.2,57.5,65.2z M113.5,82.4c1.3,0,2.9-1.7,2.9-3.1c0-0.6-0.5-1.3-1.5-1.3
		c-1.3,0-2.7,1.8-2.7,3.2C112.2,81.9,112.7,82.4,113.5,82.4z M172.1,82.4c1.3,0,2.9-1.7,2.9-3.1c0-0.6-0.5-1.3-1.5-1.3
		c-1.3,0-2.7,1.8-2.7,3.2C170.8,81.9,171.3,82.4,172.1,82.4z M211.4,96.8c-6.8,11.3-12,16.1-13.4,16.1c-1.4,0,1.8-6.5,4.5-12.3
		c1.9-4.1,3.4-7.4,3.4-8.7c0-0.4-0.6-1.1-1.3-1.1c-2.5,0-11,10.8-14.7,15.4c3-6.2,6.5-15.4,6.5-18.1c0-0.4-0.1-0.7-0.7-1.3
		c-0.2-0.2-0.5-0.4-0.7-0.4c-0.4,0-0.4,0.5-2.9,4.4c-2.3,3.4-6,7.2-9.1,9.3c0.7-2,1.1-4.1,1.1-5.6c0.1-2.2-0.4-3.9-2.1-3.9
		c-2.8,0-7,6-7,10.2c0,1.8,0.8,3.1,2.7,3.1c0.5,0,1-0.1,1.5-0.2c-2.7,5.5-4.9,7.5-6.5,7.7c-1.3,0.1-2-1-2-3c0-5.4,4-11.5,5.6-13.8
		c0.3-0.4-0.2-0.8-0.9-0.6c-1.8,0.8-4.9,4.3-6.7,8.3c-4.4,6-8.7,9.9-10.3,9.9c-0.4,0-0.6-0.3-0.1-1.8c0.8-2.4,6.1-12.9,9.3-18
		c0.4-0.6,0.1-0.6-0.6-0.4c-1.5,0.6-3.1,1.9-3.9,3.2c-0.6,1-1.4,2.3-2.1,3.7c-6,9.3-11.2,13.2-13.9,13.7c-1.3,0.3-1.5-0.7-1.3-2.3
		c0.6-3.3,2.6-7.5,9.6-21.1c2.8,0,4,0.1,4.6,0.1c1.5,0,2.1-0.4,2.5-1.7c0.1-0.2,0.1-0.4-0.2-0.4c-0.8,0-4.3,0.2-6,0.2
		c0.8-1.7,1.8-3.4,2.8-5.3c1.3-2.6,1.3-4.1-0.8-5.7c-0.2-0.1-0.4-0.1-0.6,0.2c-1.5,3.9-3.2,7.5-4.8,10.8c-0.8,0-1.9-0.1-2.3-0.1
		c-1.6,0-2,0.3-2.5,1.5c-0.1,0.2-0.1,0.4,0.2,0.4c0.7,0,2.1-0.1,3.7-0.1c-1.6,3.2-3.1,6.1-4.3,8.5c-6.4,10.5-11.2,14.2-12.6,14.2
		c-0.4,0-0.6-0.2-0.6-0.8c0-2.2,4.3-10.6,7-16.5c0.7-1.5,0.8-2.3-1-3c-0.4-0.1-0.5-0.1-0.7,0.3c-4,6.5-9.7,14-14.3,17.3
		c-0.6,0.4-1.1,0.2-0.7-0.6c2.7-6.1,7.7-14.3,7.7-17.6c0-1.2-0.8-1.9-1.5-1.9c-1.4,0-3.1,2.1-4.4,4.4c-0.4,0.6,0.2,0.8,0.4,0.6
		c0.6-0.8,2.1-3,2.6-2.8c0.3,0.1-0.2,1.6-2.2,5.8c-6.4,10.5-12.2,14.9-15,15.4c-1.3,0.3-1.5-0.7-1.3-2.3c0.6-3.3,2.6-7.5,9.6-21.1
		c2.8,0,4,0.1,4.6,0.1c1.5,0,2.1-0.4,2.5-1.7c0.1-0.2,0.1-0.4-0.2-0.4c-0.8,0-4.3,0.2-6,0.2c0.8-1.7,1.8-3.4,2.8-5.3
		c1.3-2.6,1.3-4.1-0.8-5.7c-0.2-0.1-0.4-0.1-0.6,0.2c-1.5,3.9-3.2,7.5-4.8,10.8c-0.8,0-1.9-0.1-2.3-0.1c-1.6,0-2,0.3-2.5,1.5
		c-0.1,0.2-0.1,0.4,0.2,0.4c0.7,0,2.1-0.1,3.7-0.1c-1.6,3.2-3,6-4.3,8.4c-5.3,8.6-11.5,14.5-13.4,14.5c-0.4,0-0.6-0.3-0.1-1.8
		c0.8-2.4,6.1-12.9,9.3-18c0.4-0.6,0.1-0.6-0.6-0.4c-1.5,0.6-3.1,1.9-3.9,3.2c-0.6,1-1.4,2.3-2.1,3.7c-6,9.3-11.2,13.2-13.9,13.7
		c-1.3,0.3-1.5-0.7-1.3-2.3c0.6-3.3,2.6-7.5,9.6-21.1c2.8,0,4,0.1,4.6,0.1c1.5,0,2.1-0.4,2.5-1.7c0.1-0.2,0.1-0.4-0.2-0.4
		c-0.8,0-4.3,0.2-6,0.2c0.8-1.7,1.8-3.4,2.8-5.3c1.3-2.6,1.3-4.1-0.8-5.7c-0.2-0.1-0.4-0.1-0.6,0.2c-1.5,3.9-3.2,7.5-4.8,10.8
		c-0.8,0-1.9-0.1-2.3-0.1c-1.6,0-2,0.3-2.5,1.5c-0.1,0.2-0.1,0.4,0.2,0.4c0.7,0,2.1-0.1,3.7-0.1c-1.5,3-2.9,5.7-4.1,8.1
		c-2.6,3.7-7.4,6.8-11.2,8.9c0.1-3.7-0.3-7.9-0.1-11.3c2-2.9,3.6-6.1,3.6-7.3c0-0.4-0.2-0.6-0.6-0.6c-2.4,0-4.4,3.7-5.2,8.6
		c-5.8,9.6-13.3,17.4-15.3,17.1c-1.5-0.3,1.4-6.4,4.2-12.1c2-4,3.7-7.2,3.7-8.4c0-0.7-0.6-1.3-1.5-1.3c-2.3,0-11.6,11.2-14.6,14.6
		c1.2-3.5,7-13.7,7-17.1c0-1.2-0.7-2.3-1.4-2.3c-1.1,0-2.6,1.6-3.5,3.2c-0.6,1.1-0.4,1.9,0.1,1.3c0.7-1.1,1.1-1.3,1.4-1.3
		c0.2,0,0.3,0.4-0.1,1.4c-1,2.5-2.2,5.2-3.4,7.8c-3,6.4-3.4,7-4.7,10.3c-0.4,1-0.2,1.8,0.6,2.5c0.5,0.4,0.8,0.4,1.1-0.1
		c5.4-7.2,13.8-15.8,14.4-15.8c0.6,0-1.1,2.5-2.9,6.6c-2.1,4.6-3.8,7.9-3.8,10.8c0,1.5,1,2.4,2,2.4c3.6,0,10.2-6.8,16.3-16.9
		c-0.2,2.6-0.2,6.4-0.5,10c-6.7,3.1-9.3,5.7-9.3,7.1c0,1.2,1.1,1.6,2.5,1.6c5.4,0,9.4-3.7,9.8-8.9c3.2-1.9,6.8-4.3,9.4-6.9
		c-0.5,0.9-0.9,1.6-1.2,2.3c-1.7,3.5-2.5,6.2-2.5,8.4c0,2.2,1.1,3.4,3,3.4c2.5,0,7-2.7,12.5-10.2c-0.9,1.9-1.7,3.6-2.1,4.7
		c-0.6,1.6-0.9,2.6-0.9,3.4c0,1.3,0.7,1.8,1.5,1.8c2.7,0,7.5-4.3,12.1-10.9c-1.5,3.2-2.2,5.7-2.2,7.8c0,2.2,1.1,3.4,3,3.4
		c2.7,0,7.9-3.3,14-12.4c-2.1,4.4-3.3,6.7-3.3,8.1c0,1.1,0.6,2,1.5,2c2.2,0,8.7-7.7,14-14.3c-2.3,4.6-5.3,11.3-5.3,13.9
		c0,1.3,0.6,2,2.1,2c2.6,0,6.5-3.8,10.6-9.8c-1.3,2.9-1.9,5.2-1.9,7.2c0,2.2,1.1,3.4,3,3.4c2.5,0,7-2.7,12.5-10.2
		c-0.9,1.9-1.7,3.6-2.1,4.7c-0.6,1.6-0.9,2.6-0.9,3.4c0,1.3,0.7,1.8,1.5,1.8c2.5,0,6.9-3.8,11.2-9.6c-0.3,1-0.4,2-0.4,2.9
		c0,3.4,1.8,5,4.4,5c3.7,0,7.7-5.2,10.1-10.4c4.3-2.3,8.6-7.3,10.8-10.5c-0.7,2.5-1.6,4.8-2.5,6.8c-2.3,5.5-3.7,8.3-4.6,10.5
		c-0.3,0.7-0.2,1.4,0.4,2c1,1.1,1.3,0.8,1.8,0.1c5.3-7.9,13.3-16.3,13.9-16.3c0.6,0-0.8,2.5-2.7,6.5c-2.3,4.6-4.2,9.3-4.2,11.4
		c0,1.3,0.6,2.5,1.6,2.5c3.4,0,9.6-8,15.2-17.8c0.3-0.5,0.4-0.9,0.4-1.2C211.9,96.5,211.7,96.4,211.4,96.8z M69.1,115.6
		c-1,0-1.1-0.6-0.4-1.3c0.8-1.1,2.5-2.4,6.5-4.6C74.7,113.3,72,115.6,69.1,115.6z M180.4,101.4c-0.6,0.3-1.1,0.4-1.6,0.4
		c-0.8,0-1.1-0.6-1.1-1.5c0-2.7,2.7-7.9,4.1-8.1c0.4-0.1,0.7,0.3,0.6,1.1C182.3,95.7,181.6,98.7,180.4,101.4z"/>
</g>
</svg>
