<?xml version="1.0" encoding="utf-8"?>
<!-- Generator: Adobe Illustrator 20.0.0, SVG Export Plug-In . SVG Version: 6.00 Build 0)  -->
<svg version="1.1" id="Layer_1" xmlns="http://www.w3.org/2000/svg" xmlns:xlink="http://www.w3.org/1999/xlink" x="0px" y="0px"
	 width="23px" height="23px" viewBox="0 0 23 23" style="enable-background:new 0 0 23 23;" xml:space="preserve">
<style type="text/css">
	.st0{fill:#347C7C;}
</style>
<path id="twitter-icon_1_" class="st0" d="M22.6,4.4C21.8,4.8,20.9,5,20,5.2c1-0.6,1.7-1.5,2-2.6c-0.9,0.5-1.9,0.9-2.9,1.1
	c-0.8-0.9-2.1-1.5-3.4-1.5c-3,0-5.2,2.8-4.5,5.7C7.3,7.7,3.9,5.9,1.6,3C0.4,5.2,0.9,7.9,3,9.3c-0.8,0-1.5-0.2-2.1-0.6
	c-0.1,2.2,1.5,4.2,3.7,4.6c-0.7,0.2-1.4,0.2-2.1,0.1c0.6,1.8,2.3,3.2,4.3,3.2c-2,1.5-4.4,2.2-6.9,1.9C2,19.8,4.4,20.6,7,20.6
	c8.6,0,13.5-7.3,13.2-13.8C21.2,6.2,22,5.4,22.6,4.4z"/>
</svg>
