<?xml version="1.0" encoding="utf-8"?>
<!-- Generator: Adobe Illustrator 20.0.0, SVG Export Plug-In . SVG Version: 6.00 Build 0)  -->
<svg version="1.1" id="Layer_1" xmlns="http://www.w3.org/2000/svg" xmlns:xlink="http://www.w3.org/1999/xlink" x="0px" y="0px"
	 width="23px" height="23px" viewBox="0 0 23 23" style="enable-background:new 0 0 23 23;" xml:space="preserve">
<style type="text/css">
	.st0{fill:#347C7C;}
</style>
<path class="st0" d="M11.5,2.2c3,0,3.4,0,4.6,0.1c3.1,0.1,4.5,1.6,4.6,4.6c0.1,1.2,0.1,1.6,0.1,4.6s0,3.4-0.1,4.6
	c-0.1,3-1.6,4.5-4.6,4.6c-1.2,0.1-1.6,0.1-4.6,0.1s-3.4,0-4.6-0.1c-3.1-0.1-4.5-1.6-4.6-4.7c-0.1-1.2-0.1-1.6-0.1-4.6s0-3.4,0.1-4.6
	c0.1-3.1,1.6-4.5,4.6-4.6C8.1,2.2,8.5,2.2,11.5,2.2z M11.5,0.2c-3.1,0-3.5,0-4.7,0.1C2.7,0.4,0.4,2.7,0.2,6.8c0,1.2,0,1.6,0,4.7
	s0,3.5,0.1,4.7c0.2,4.1,2.5,6.4,6.6,6.6c1.2,0.1,1.6,0.1,4.7,0.1s3.5,0,4.7-0.1c4.1-0.2,6.4-2.5,6.6-6.6C23,15,23,14.6,23,11.5
	s0-3.5-0.1-4.7c-0.2-4.1-2.5-6.4-6.6-6.6C15,0.2,14.6,0.2,11.5,0.2z M11.5,5.7c-3.2,0-5.8,2.6-5.8,5.8s2.6,5.8,5.8,5.8
	s5.8-2.6,5.8-5.8S14.7,5.7,11.5,5.7z M11.5,15.3c-2.1,0-3.8-1.7-3.8-3.8s1.7-3.8,3.8-3.8s3.8,1.7,3.8,3.8S13.6,15.3,11.5,15.3z
	 M17.6,4.1c-0.8,0-1.4,0.6-1.4,1.4s0.6,1.4,1.4,1.4S19,6.3,19,5.5S18.3,4.1,17.6,4.1z"/>
</svg>
