<?xml version="1.0" encoding="utf-8"?>
<!-- Generator: Adobe Illustrator 20.1.0, SVG Export Plug-In . SVG Version: 6.00 Build 0)  -->
<svg version="1.1" id="Layer_1" xmlns="http://www.w3.org/2000/svg" xmlns:xlink="http://www.w3.org/1999/xlink" x="0px" y="0px"
	 width="23px" height="23px" viewBox="0 0 23 23" style="enable-background:new 0 0 23 23;" xml:space="preserve">
<style type="text/css">
	.st0{fill:#0EADAF;}
</style>
<path class="st0" d="M11.4,2c5.2,0,9.4,4.2,9.4,9.4s-4.2,9.4-9.4,9.4S2,16.7,2,11.5S6.2,2,11.4,2z M11.4,0.2
	c-6.2,0-11.3,5-11.3,11.3s5.1,11.3,11.3,11.3s11.3-5.1,11.3-11.3S17.7,0.2,11.4,0.2z M10.2,14c0,0.7-0.6,1.3-1.3,1.3
	S7.6,14.7,7.6,14s0.6-1.3,1.3-1.3C9.6,12.7,10.2,13.3,10.2,14z M7.7,9v1.9c2.4,0,4.3,2,4.3,4.3h1.9C13.9,11.8,11.1,9.1,7.7,9z
	 M7.7,7.7c4.2,0,7.5,3.4,7.5,7.5h1.9c0-5.2-4.2-9.4-9.4-9.4C7.7,5.8,7.7,7.7,7.7,7.7z"/>
</svg>
