<?xml version="1.0" encoding="utf-8"?>
<!-- Generator: Adobe Illustrator 20.0.0, SVG Export Plug-In . SVG Version: 6.00 Build 0)  -->
<svg version="1.1" id="Layer_1" xmlns="http://www.w3.org/2000/svg" xmlns:xlink="http://www.w3.org/1999/xlink" x="0px" y="0px"
	 width="839px" height="205px" viewBox="0 0 839 205" style="enable-background:new 0 0 839 205;" xml:space="preserve">
<path d="M1,110.1c0,2.9,0.5,8,2.9,14.3c0.5,1.7,1.9,1.5,1.7-0.2c-2.9-18.9,13.6-53.1,36.1-81.3C56.3,24.7,71.6,11.2,82.3,4.9
	c2.2-1.2,3.6-0.7,1.7,5.8c-15,52.6-55.3,125.4-83.5,178.1c-1.5,2.2,0.2,2.4,3.4,2.4c3.9,0,6.1-1.2,8.2-4.4
	C26.5,164.5,81.1,81.5,108,54.3c5.8-5.8,13.1-12.4,14.8-12.4c1.7,0,2.2,2.9,1.2,5.3c-20.6,48.3-53.9,111.1-67.4,134.4
	c-1.2,2.2,0.7,2.2,1.9,2.2c6.8,0,9.7-1.2,12.9-6.8c40.3-63.3,79.6-100.9,98.5-112.3c1.5-1,3.6-0.5,2.7,1.7
	c-14.1,29.8-41.2,71.3-59.9,106.3c-5.3,9.9-10.4,20.1-10.4,26c0,4.6,1.9,6.3,6.1,6.3c6.1,0,20.4-6.3,35.2-21.6
	c9-9.2,15.3-19.9,15.3-26.9c0-1.9-0.5-4.4-1.2-5.8c-0.5-1-1-0.7-1.2,0.2c-3.9,12.9-23.3,41.2-38.8,47.1c-4.1,1.5-5.1,0.5-2.9-5.3
	c9.7-22.6,34.9-60.9,58-104.1c4.1-8,8.2-15.3,8.2-21.3c0-4.1-2.2-8-5.8-8c-8,0-19.4,9.2-29.1,18.4c-22.3,20.9-36.1,38.8-55.1,64.3
	c-0.5,0.5-1.2-0.5-1-1.2c13.1-28.4,29.4-54.3,42.7-88.8c1.9-4.9,4.1-9.9,4.1-13.8c0-2.9-2.2-6.1-4.4-6.1c-9.2,0-24.5,15.8-36.4,29.8
	c-24,28.4-32.8,43.7-53.6,71.3c-1,1.5-1.2,0.5-0.7-0.5C58,98.7,71.6,75,88.1,27.7c2.7-8,4.1-15.3,4.1-19.9c0-3.2-1.9-7.8-5.1-7.8
	c-6.1,0-30.3,15-50.9,38.3C17.5,59.7,1,83.7,1,110.1z"/>
<path d="M174.7,160.6c-3.2,0-4.1-0.7-4.1-2.2c0-11.2,34.9-38.6,41.7-38.6c1.5,0,1.5,1,0.2,2.9c-1.9,2.9-6.6,7-10.9,8
	c-2.4,0.5-0.2,3.4,1.9,3.4c4.9,0,17.5-8.5,17.5-16.5c0-2.4-2.4-5.6-6.6-5.6c-19.2,0-51.9,27.2-51.9,45.9c0,3.9,2.4,6.8,9,6.8
	c1.7,0,3.9-0.2,6.3-1c-7.3,7-12.9,15.3-12.9,22.1c0,3.4,2.2,5.3,6.6,5.3c21.1,0,64.3-50.9,68.4-56.3c1.9-2.4,3.4-2.9,2.4-0.2
	c-8.7,23.5-18.2,40.5-24.3,52.2c-1.2,2.2-0.7,4.4,4.4,2.7c3.9-1.2,5.6-1.7,7.3-4.6c13.3-23.8,26.4-41,37.4-51.2
	c-1,2.4-1.7,5.6,1,6.3c2.7,0.7,4.1-0.5,5.3-2.7c8.2-15.8,9.5-17,9.5-19.4c0-1.7-1.2-2.9-2.7-2.9c-3.6,0-8.7,5.1-20.1,19.2l-17,21.6
	c4.6-11.4,12.6-27.2,12.6-32.5c0-2.2-0.7-3.4-3.4-3.4c-5.1,0-15.8,15.8-35.9,34.9c-11.6,11.2-30.1,27.2-39.1,27.2
	c-1.7,0-1.9-1.2-1.9-2.2c0-4.6,5.6-12.1,15.3-21.3c2.9-1.5,5.8-2.9,8.5-4.6c1.9-1.2,2.9-2.4,2.9-4.1c0-3.2-2.4-2.7-6.8,0
	c-3.6,2.2-8,5.6-12.1,9.2C179.6,160.4,176.7,160.6,174.7,160.6z"/>
<path d="M286.3,188.5c17.2,0,40.3-19.9,58.5-51.9c1-1.7,1.5-3.2,1.5-4.1c0-1-0.7-1.2-1.5,0c-23.3,39.1-46.8,50.2-56.5,49
	c-4.4-0.5-7.3-2.9-7.3-10.4c0-18,23.3-55.3,36.9-55.3c1.9,0,3.6,0.7,4.6,2.9c-5.3,4.9-9.9,11.2-12.1,15.3c-1.7,2.9,0,4.1,1.7,4.1
	c6.3,0,14.6-9.7,14.6-18.7v-0.5c1.9-2.2,3.9-4.1,6.1-5.8c1-0.7,1-2.7-0.7-1.7c-2.2,1.2-4.4,2.7-6.6,4.4c-1.2-2.9-3.9-4.9-7.8-4.9
	c-19.2,0-47.1,35.4-47.1,59.7C270.5,182.7,276.6,188.5,286.3,188.5z"/>
<path d="M426.3,18c1.7,0,2.2,1.5,2.2,3.2c0,24.3-42.7,80.5-69.9,103.6C365.2,111.1,410.3,18,426.3,18z M356.4,129.6
	c37.4-26.4,77.4-72.8,77.4-108.4c0-4.1-1.9-8.5-5.1-8.5c-16.3,0-47.1,42.7-67.7,85.4c-23.5,48.5-31.1,65.3-37.4,81.3
	c-0.7,1.7,0,3.2,1.7,4.4c2.7,1.9,5.1,0.7,6.1-0.5c21.8-26,45.6-48,47.8-48c1.2,0,0,2.4-3.2,9c-7.8,16-19.9,37.8-19.9,47.1
	c0,4.1,2.2,6.8,5.3,6.8c11.9,0,37.1-27.7,56.3-61.4c1-1.7,1.5-3.2,1.5-4.1c0-1-0.7-1.2-1.5,0c-23.3,39.1-46.6,58.5-51.4,57.7
	c-2.7-0.5,6.6-17,14.8-33.5c5.3-10.9,10.7-20.4,10.7-25.2c0-3.4-2.7-5.1-6.3-5.1c-7.3,0-36.9,30.8-46.6,41.7
	C341.9,159.4,348.7,146,356.4,129.6z"/>
<path d="M461,138.3c1.9-3.4-1.9-7.8-4.1-7.8c-1,0-1.7,0.2-2.7,1.7C445,146,425.8,171,413,178.8c-4.4,2.4-4.6,0.7-3.9-3.9
	c4.9-25.5,27.4-55.1,41.5-55.1c3.6,0,6.1,1.7,7.3,3.6c1.5,2.4,2.9,0,2.4-3.4c-0.7-4.4-4.1-7.5-10.7-7.5c-25.5,0-52.6,42.9-52.6,66
	c0,7,3.9,9.9,8.5,9.9c8.5,0,29.4-23.5,37.1-34.7c-7.3,14.3-10.9,25.2-10.9,29.8c0,4.4,2.7,6.8,6.1,6.8c11.9,0,27.9-20.1,47.1-53.9
	c1-1.7,1.5-3.2,1.5-4.1c0-1-0.7-1.2-1.5,0c-22.8,38.1-36.4,50.2-41.5,50.2c-0.7,0-1.2-0.5-1.2-1.5
	C442.1,178.1,446.2,163.5,461,138.3z"/>
<path d="M505.1,184.1c-2.9-0.7,6.1-18.4,17.5-39.5c7.3-13.3,9.7-17.5,9.7-21.3c0-2.4-1.9-5.1-4.9-5.1c-8,0-34.4,28.9-45.6,41.5
	c6.6-14.8,17.2-36.6,17.2-44.6c0-3.6-2.2-5.3-4.6-5.3c-3.9,0-8.5,5.1-11.6,10.7c-2.2,3.9-1.2,6.6,0.2,4.4c2.4-3.6,3.9-4.6,4.9-4.6
	c0.7,0,1,1.2-0.5,4.9c-11.2,28.1-17.7,39.3-26.2,56.3c-1,1.7-0.2,3.2,1.9,3.2c2.4,0,6.1-0.7,7.3-2.4c17.7-24.5,42.9-50,45.9-50
	c0.5,0,0.7,0.2,0.7,1c0,5.6-22.6,37.8-22.6,51.4c0,4.1,3.2,7,6.6,7c11.9,0,31.5-21.1,50.7-54.8c1-1.7,1.5-3.2,1.5-4.1
	c0-1-0.7-1.2-1.5,0C528.4,171.5,509.3,185.3,505.1,184.1z"/>
<path d="M575.5,201.1c12.4,0,44.6-31.5,63.6-64.5c1-1.7,1.5-3.2,1.5-4.1c0-1-0.7-1.2-1.5,0c-22.6,37.6-52.9,60.9-59,60.9
	c-1.5,0-2.4-1.5-2.4-4.9c0-5.6,2.4-15.8,6.8-28.4C622.1,125.4,667,65.5,667,40.5c0-7-1.9-10.9-6.1-10.9c-11.9,0-43.7,38.8-67.2,82.2
	c-26.4-7.3-60.2,33.7-60.2,62.8c0,6.3,2.7,11.9,9.5,11.9c6.1,0,15.3-4.9,26-13.1c-1.2,5.3-1.7,10.9-1.7,15.5
	C567.2,197.7,570.9,201.1,575.5,201.1z M570.4,167.2c-10.2,8-18.4,12.4-22.8,12.4c-2.2,0-3.4-1.9-3.4-4.6c0-24,30.8-63.6,46.8-58.2
	C582.3,133.7,574.8,151.4,570.4,167.2z M595.6,132c12.9-29.8,37.6-72.8,60.4-95.6c3.4-3.4,6.1-1.5,5.3,1.7
	c-4.6,22.8-20.6,48.3-38.1,72.3c-12.1,16.5-24.5,30.6-35.9,41.7C590.1,145.6,592.7,138.5,595.6,132z"/>
<path d="M676.4,68.2c-3.6,0-8.7,6.3-8.7,10.4c0,1.9,1.7,4.4,4.6,4.4c4.4,0,9.9-6.6,9.9-10.7C682.2,70.1,679.6,68.2,676.4,68.2z
	 M652.2,197.5c-3.4,0-3.6-1.9-1.5-4.6c2.9-3.6,8.5-8.2,22.3-16C671.6,189.5,662.3,197.5,652.2,197.5z M627.4,182
	c-1.5,0-1.9-1-0.2-6.1c2.9-8.2,17.2-37.4,28.1-54.8c1.2-1.9,0.2-2.2-1.9-1.5c-5.3,1.9-10.7,6.6-13.6,11.2
	c-8.2,13.3-17.5,31.8-21.3,41.7c-2.2,5.6-3.2,9-3.2,11.9c0,4.6,2.4,6.3,5.3,6.3c12.6,0,36.6-24,54.3-53.1c-0.7,9-0.7,21.8-1.7,34.2
	c-23,10.7-32,19.7-32,24.5c0,4.1,3.6,5.6,8.7,5.6c18.7,0,32.5-12.9,34-30.8c15-9,33-20.9,40.5-34.4c1-1.7,1.5-3.2,1.5-4.1
	c0-1-0.7-1.2-1.5,0c-8.5,13.8-26.2,25.2-40.3,33c0.2-12.9-1-27.4-0.2-39.1c7-9.9,12.4-21.1,12.4-25.2c0-1.5-0.7-2.2-2.2-2.2
	c-8.2,0-15,12.6-18,29.6C654.1,165.7,632.5,182,627.4,182z"/>
<path d="M721.1,191.7c12.4,0,31.5-14.1,40-30.1c2.2-4.4,2.7-10.2,0.2-13.3c-0.7-1-1.2-0.7-1.9,0.5c-13.6,25.5-28.6,37.8-36.4,37.8
	c-4.4,0-7.5-4.9-5.3-17c25.2-21.6,39.3-39.3,39.3-50.9c0-3.9-2.9-6.6-7.3-6.6c-15.3,0-42.7,38.1-42.7,63.6
	C707,186.3,711.8,191.7,721.1,191.7z M745.6,118.1c2.2-1.9,3.9-1.2,3.9,1c0,7-10.7,26.4-30.6,45.4
	C723.7,147.5,735.9,127.6,745.6,118.1z"/>
<path d="M784.1,145.6c21.1-27.7,42.5-69.6,49.5-86.6c2.7-6.3,5.3-11.9,5.3-18.7c0-7-1.5-12.4-2.4-15.3c-0.7-1.9-3.4-2.2-4.1,1
	c-7.3,28.4-29.8,73-51.9,117.9C778.6,147.7,781.2,149.2,784.1,145.6z M757.5,187.3c-0.5,1.2-0.7,2.4,1.5,2.4c3.4,0,7-0.5,9.2-3.2
	c4.4-5.1,7-9.7,9.7-15.3c1.5-2.9,0.7-5.3-1.7-5.3c-2.2,0-4.1,0.2-6.1,0.7c-1.7,0.5-2.7,1.2-3.4,2.4C763,174.7,759.6,181,757.5,187.3
	z"/>
</svg>
